<?xml version="1.0" encoding="UTF-8"?>
<svg xmlns="http://www.w3.org/2000/svg" width="1024" height="1024" viewBox="0 0 1024 1024">
<g fill="none" stroke="black" stroke-linecap="square">
<line x1="460.21" y1="511.41" x2="955.01" y2="512.12" stroke="black" stroke-width="5.50" stroke-linecap="square" />
<line x1="726.07" y1="500.29" x2="726.03" y2="523.29" stroke="black" stroke-width="5.50" stroke-linecap="square" />
<line x1="800.07" y1="500.40" x2="800.03" y2="523.40" stroke="black" stroke-width="5.50" stroke-linecap="square" />
<line x1="955.02" y1="500.62" x2="954.99" y2="523.62" stroke="black" stroke-width="5.50" stroke-linecap="square" />
<line x1="458.74" y1="520.36" x2="798.44" y2="634.80" stroke="black" stroke-width="5.50" stroke-linecap="square" />
<line x1="646.10" y1="571.35" x2="638.76" y2="593.14" stroke="black" stroke-width="5.50" stroke-linecap="square" />
<line x1="693.01" y1="587.15" x2="685.67" y2="608.95" stroke="black" stroke-width="5.50" stroke-linecap="square" />
<line x1="749.40" y1="606.15" x2="742.06" y2="627.94" stroke="black" stroke-width="5.50" stroke-linecap="square" />
<line x1="802.11" y1="623.90" x2="794.76" y2="645.70" stroke="black" stroke-width="5.50" stroke-linecap="square" />
<line x1="450.89" y1="532.30" x2="592.62" y2="689.84" stroke="black" stroke-width="5.50" stroke-linecap="square" />
<line x1="521.86" y1="594.00" x2="504.77" y2="609.38" stroke="black" stroke-width="5.50" stroke-linecap="square" />
<line x1="539.59" y1="613.70" x2="522.49" y2="629.08" stroke="black" stroke-width="5.50" stroke-linecap="square" />
<line x1="571.02" y1="648.64" x2="553.93" y2="664.02" stroke="black" stroke-width="5.50" stroke-linecap="square" />
<line x1="601.17" y1="682.15" x2="584.07" y2="697.53" stroke="black" stroke-width="5.50" stroke-linecap="square" />
<line x1="445.33" y1="536.20" x2="664.11" y2="945.55" stroke="black" stroke-width="5.50" stroke-linecap="square" />
<line x1="570.88" y1="746.72" x2="550.59" y2="757.56" stroke="black" stroke-width="5.50" stroke-linecap="square" />
<line x1="600.10" y1="801.40" x2="579.82" y2="812.24" stroke="black" stroke-width="5.50" stroke-linecap="square" />
<line x1="612.12" y1="823.89" x2="591.84" y2="834.73" stroke="black" stroke-width="5.50" stroke-linecap="square" />
<line x1="641.82" y1="879.45" x2="621.53" y2="890.29" stroke="black" stroke-width="5.50" stroke-linecap="square" />
<line x1="674.25" y1="940.13" x2="653.96" y2="950.97" stroke="black" stroke-width="5.50" stroke-linecap="square" />
<line x1="428.63" y1="539.32" x2="392.47" y2="835.04" stroke="black" stroke-width="5.50" stroke-linecap="square" />
<line x1="424.53" y1="667.61" x2="401.70" y2="664.82" stroke="black" stroke-width="5.50" stroke-linecap="square" />
<line x1="419.67" y1="707.31" x2="396.84" y2="704.52" stroke="black" stroke-width="5.50" stroke-linecap="square" />
<line x1="413.00" y1="761.91" x2="390.17" y2="759.12" stroke="black" stroke-width="5.50" stroke-linecap="square" />
<line x1="410.21" y1="784.74" x2="387.38" y2="781.95" stroke="black" stroke-width="5.50" stroke-linecap="square" />
<line x1="403.88" y1="836.43" x2="381.05" y2="833.64" stroke="black" stroke-width="5.50" stroke-linecap="square" />
<line x1="413.17" y1="532.26" x2="274.30" y2="685.89" stroke="black" stroke-width="5.50" stroke-linecap="square" />
<line x1="362.80" y1="605.13" x2="345.73" y2="589.71" stroke="black" stroke-width="5.50" stroke-linecap="square" />
<line x1="327.26" y1="644.45" x2="310.20" y2="629.03" stroke="black" stroke-width="5.50" stroke-linecap="square" />
<line x1="282.83" y1="693.60" x2="265.77" y2="678.18" stroke="black" stroke-width="5.50" stroke-linecap="square" />
<line x1="405.19" y1="519.82" x2="176.32" y2="591.85" stroke="black" stroke-width="5.50" stroke-linecap="square" />
<line x1="338.21" y1="552.96" x2="331.30" y2="531.02" stroke="black" stroke-width="5.50" stroke-linecap="square" />
<line x1="294.81" y1="566.62" x2="287.90" y2="544.68" stroke="black" stroke-width="5.50" stroke-linecap="square" />
<line x1="290.99" y1="567.82" x2="284.09" y2="545.88" stroke="black" stroke-width="5.50" stroke-linecap="square" />
<line x1="235.67" y1="585.23" x2="228.76" y2="563.29" stroke="black" stroke-width="5.50" stroke-linecap="square" />
<line x1="179.78" y1="602.82" x2="172.87" y2="580.88" stroke="black" stroke-width="5.50" stroke-linecap="square" />
<line x1="403.89" y1="511.34" x2="79.00" y2="510.99" stroke="black" stroke-width="5.50" stroke-linecap="square" />
<line x1="297.04" y1="522.72" x2="297.06" y2="499.72" stroke="black" stroke-width="5.50" stroke-linecap="square" />
<line x1="266.04" y1="522.69" x2="266.06" y2="499.69" stroke="black" stroke-width="5.50" stroke-linecap="square" />
<line x1="201.54" y1="522.62" x2="201.56" y2="499.62" stroke="black" stroke-width="5.50" stroke-linecap="square" />
<line x1="142.04" y1="522.56" x2="142.06" y2="499.56" stroke="black" stroke-width="5.50" stroke-linecap="square" />
<line x1="78.99" y1="522.49" x2="79.01" y2="499.49" stroke="black" stroke-width="5.50" stroke-linecap="square" />
<line x1="411.69" y1="491.91" x2="203.28" y2="292.75" stroke="black" stroke-width="5.50" stroke-linecap="square" />
<line x1="362.65" y1="460.96" x2="378.54" y2="444.33" stroke="black" stroke-width="5.50" stroke-linecap="square" />
<line x1="335.54" y1="435.05" x2="351.43" y2="418.42" stroke="black" stroke-width="5.50" stroke-linecap="square" />
<line x1="265.78" y1="368.38" x2="281.67" y2="351.75" stroke="black" stroke-width="5.50" stroke-linecap="square" />
<line x1="229.27" y1="333.49" x2="245.16" y2="316.86" stroke="black" stroke-width="5.50" stroke-linecap="square" />
<line x1="195.34" y1="301.06" x2="211.23" y2="284.44" stroke="black" stroke-width="5.50" stroke-linecap="square" />
<line x1="429.06" y1="483.36" x2="389.37" y2="111.07" stroke="black" stroke-width="5.50" stroke-linecap="square" />
<line x1="405.82" y1="373.87" x2="428.69" y2="371.43" stroke="black" stroke-width="5.50" stroke-linecap="square" />
<line x1="387.43" y1="201.35" x2="410.30" y2="198.91" stroke="black" stroke-width="5.50" stroke-linecap="square" />
<line x1="384.62" y1="175.00" x2="407.49" y2="172.56" stroke="black" stroke-width="5.50" stroke-linecap="square" />
<line x1="377.93" y1="112.29" x2="400.80" y2="109.85" stroke="black" stroke-width="5.50" stroke-linecap="square" />
<line x1="442.12" y1="485.07" x2="542.80" y2="222.22" stroke="black" stroke-width="5.50" stroke-linecap="square" />
<line x1="465.48" y1="391.92" x2="486.96" y2="400.15" stroke="black" stroke-width="5.50" stroke-linecap="square" />
<line x1="474.43" y1="368.58" x2="495.90" y2="376.80" stroke="black" stroke-width="5.50" stroke-linecap="square" />
<line x1="491.42" y1="324.22" x2="512.89" y2="332.45" stroke="black" stroke-width="5.50" stroke-linecap="square" />
<line x1="514.48" y1="263.99" x2="535.96" y2="272.21" stroke="black" stroke-width="5.50" stroke-linecap="square" />
<line x1="532.06" y1="218.11" x2="553.54" y2="226.33" stroke="black" stroke-width="5.50" stroke-linecap="square" />
<line x1="449.31" y1="489.11" x2="767.90" y2="78.15" stroke="black" stroke-width="5.50" stroke-linecap="square" />
<line x1="468.30" y1="445.84" x2="486.48" y2="459.93" stroke="black" stroke-width="5.50" stroke-linecap="square" />
<line x1="666.81" y1="189.77" x2="684.99" y2="203.87" stroke="black" stroke-width="5.50" stroke-linecap="square" />
<line x1="677.23" y1="176.34" x2="695.41" y2="190.43" stroke="black" stroke-width="5.50" stroke-linecap="square" />
<line x1="717.36" y1="124.57" x2="735.54" y2="138.66" stroke="black" stroke-width="5.50" stroke-linecap="square" />
<line x1="758.81" y1="71.10" x2="776.99" y2="85.19" stroke="black" stroke-width="5.50" stroke-linecap="square" />
<line x1="452.30" y1="491.79" x2="652.33" y2="298.38" stroke="black" stroke-width="5.50" stroke-linecap="square" />
<line x1="493.79" y1="435.67" x2="509.78" y2="452.21" stroke="black" stroke-width="5.50" stroke-linecap="square" />
<line x1="524.35" y1="406.13" x2="540.33" y2="422.67" stroke="black" stroke-width="5.50" stroke-linecap="square" />
<line x1="559.93" y1="371.73" x2="575.92" y2="388.26" stroke="black" stroke-width="5.50" stroke-linecap="square" />
<line x1="595.52" y1="337.32" x2="611.50" y2="353.85" stroke="black" stroke-width="5.50" stroke-linecap="square" />
<line x1="604.86" y1="328.28" x2="620.85" y2="344.82" stroke="black" stroke-width="5.50" stroke-linecap="square" />
<line x1="644.34" y1="290.11" x2="660.33" y2="306.65" stroke="black" stroke-width="5.50" stroke-linecap="square" />
<line x1="458.67" y1="502.18" x2="709.13" y2="415.70" stroke="black" stroke-width="5.50" stroke-linecap="square" />
<line x1="569.14" y1="451.87" x2="576.65" y2="473.61" stroke="black" stroke-width="5.50" stroke-linecap="square" />
<line x1="631.05" y1="430.49" x2="638.56" y2="452.23" stroke="black" stroke-width="5.50" stroke-linecap="square" />
<line x1="649.49" y1="424.13" x2="656.99" y2="445.87" stroke="black" stroke-width="5.50" stroke-linecap="square" />
<line x1="705.38" y1="404.83" x2="712.89" y2="426.57" stroke="black" stroke-width="5.50" stroke-linecap="square" />
<circle cx="432.05" cy="511.37" r="19.16" fill="black" />
</g>
</svg>
