<?xml version="1.0" encoding="UTF-8"?>
<svg xmlns="http://www.w3.org/2000/svg" width="1024" height="1024" viewBox="0 0 1024 1024">
  <g fill="none" stroke="white" stroke-width="21" stroke-linecap="square">
    <line x1="506.05" y1="511.48" x2="955.01" y2="512.12" />
    <line x1="726.07" y1="500.29" x2="726.03" y2="523.29" />
    <line x1="800.07" y1="500.40" x2="800.03" y2="523.40" />
    <line x1="955.02" y1="500.62" x2="954.99" y2="523.62" />
    <line x1="502.18" y1="534.99" x2="798.44" y2="634.80" />
    <line x1="646.10" y1="571.35" x2="638.76" y2="593.14" />
    <line x1="693.01" y1="587.15" x2="685.67" y2="608.95" />
    <line x1="749.40" y1="606.15" x2="742.06" y2="627.94" />
    <line x1="802.11" y1="623.90" x2="794.76" y2="645.70" />
    <line x1="466.93" y1="576.63" x2="664.11" y2="945.55" />
    <line x1="570.88" y1="746.72" x2="550.59" y2="757.56" />
    <line x1="612.12" y1="823.89" x2="591.84" y2="834.73" />
    <line x1="641.82" y1="879.45" x2="621.53" y2="890.29" />
    <line x1="674.25" y1="940.13" x2="653.96" y2="950.97" />
    <line x1="423.07" y1="584.82" x2="392.47" y2="835.04" />
    <line x1="419.67" y1="707.31" x2="396.84" y2="704.52" />
    <line x1="410.21" y1="784.74" x2="387.38" y2="781.95" />
    <line x1="403.88" y1="836.43" x2="381.05" y2="833.64" />
    <line x1="382.43" y1="566.27" x2="274.30" y2="685.89" />
    <line x1="362.80" y1="605.13" x2="345.73" y2="589.71" />
    <line x1="327.26" y1="644.45" x2="310.20" y2="629.03" />
    <line x1="282.83" y1="693.60" x2="265.77" y2="678.18" />
    <line x1="358.05" y1="511.29" x2="79.00" y2="510.99" />
    <line x1="266.04" y1="522.69" x2="266.06" y2="499.69" />
    <line x1="201.54" y1="522.62" x2="201.56" y2="499.62" />
    <line x1="142.04" y1="522.56" x2="142.06" y2="499.56" />
    <line x1="78.99" y1="522.49" x2="79.01" y2="499.49" />
    <line x1="378.55" y1="460.24" x2="203.28" y2="292.75" />
    <line x1="335.54" y1="435.05" x2="351.43" y2="418.42" />
    <line x1="265.78" y1="368.38" x2="281.67" y2="351.75" />
    <line x1="229.27" y1="333.49" x2="245.16" y2="316.86" />
    <line x1="195.34" y1="301.06" x2="211.23" y2="284.44" />
    <line x1="424.20" y1="437.79" x2="389.37" y2="111.07" />
    <line x1="405.82" y1="373.87" x2="428.69" y2="371.43" />
    <line x1="384.62" y1="175.00" x2="407.49" y2="172.56" />
    <line x1="377.93" y1="112.29" x2="400.80" y2="109.85" />
    <line x1="477.39" y1="452.89" x2="767.90" y2="78.15" />
    <line x1="468.30" y1="445.84" x2="486.48" y2="459.93" />
    <line x1="677.23" y1="176.34" x2="695.41" y2="190.43" />
    <line x1="717.36" y1="124.57" x2="735.54" y2="138.66" />
    <line x1="758.81" y1="71.10" x2="776.99" y2="85.19" />
    <line x1="502.00" y1="487.22" x2="709.13" y2="415.70" />
    <line x1="569.14" y1="451.87" x2="576.65" y2="473.61" />
    <line x1="649.49" y1="424.13" x2="656.99" y2="445.87" />
    <line x1="705.38" y1="404.83" x2="712.89" y2="426.57" />
    <circle cx="432.05" cy="511.37" r="48.00" fill="white" stroke="none" />
  </g>
</svg>
